<svg width="281" height="97" viewBox="0 0 281 97" fill="none" xmlns="http://www.w3.org/2000/svg">
<path d="M32 97C26.2667 97 21.5333 95.3333 17.8 92C14.0667 88.6667 12.2 83.5333 12.2 76.6V55C12.2 53.6667 11.5333 53 10.2 53H7.2C4.8 53 3 52.2667 1.8 50.8C0.6 49.3333 7.07805e-08 47.4667 7.07805e-08 45.2C7.07805e-08 42.8 0.6 40.8667 1.8 39.4C3 37.8 4.8 37 7.2 37H10.2C11.5333 37 12.2 36.3333 12.2 35V20.2C12.2 17.9333 13 16 14.6 14.4C16.2 12.8 18.2667 12 20.8 12C23.3333 12 25.4 12.8 27 14.4C28.7333 15.8667 29.6 17.8 29.6 20.2V35C29.6 36.3333 30.2667 37 31.6 37H39C41.2667 37 43.1333 37.8 44.6 39.4C46.2 41 47 42.9333 47 45.2C47 47.4667 46.2 49.3333 44.6 50.8C43.1333 52.2667 41.2 53 38.8 53H31.6C30.2667 53 29.6 53.6667 29.6 55V73.8C29.6 76.2 30 77.8667 30.8 78.8C31.7333 79.7333 32.8667 80.2 34.2 80.2C34.7333 80.2 35.8 80.0667 37.4 79.8C39 79.4 40 79.2 40.4 79.2C42.5333 79.2 44.3333 80 45.8 81.6C47.2667 83.2 48 85.1333 48 87.4C48 89.1333 47.4667 90.7333 46.4 92.2C45.4667 93.6667 43.9333 94.7333 41.8 95.4C40.0667 95.9333 38.4 96.3333 36.8 96.6C35.2 96.8667 33.6 97 32 97ZM85.5766 97C79.8432 97 74.5766 95.6667 69.7766 93C64.9766 90.3333 61.1099 86.6667 58.1766 82C55.3766 77.2 53.9766 71.8 53.9766 65.8C53.9766 59.6667 55.3766 54.3333 58.1766 49.8C61.1099 45.1333 64.9766 41.5333 69.7766 39C74.5766 36.3333 79.8432 35 85.5766 35C91.4432 35 96.7099 36.3333 101.377 39C106.177 41.5333 109.977 45.1333 112.777 49.8C115.577 54.3333 116.977 59.6667 116.977 65.8C116.977 71.8 115.577 77.2 112.777 82C109.977 86.6667 106.177 90.3333 101.377 93C96.7099 95.6667 91.4432 97 85.5766 97ZM85.5766 80.8C89.7099 80.8 93.0432 79.4 95.5766 76.6C98.2432 73.6667 99.5766 70.0667 99.5766 65.8C99.5766 61.4 98.2432 57.8667 95.5766 55.2C93.0432 52.5333 89.7099 51.2 85.5766 51.2C81.5766 51.2 78.1766 52.5333 75.3766 55.2C72.7099 57.8667 71.3766 61.4 71.3766 65.8C71.3766 70.0667 72.7099 73.6667 75.3766 76.6C78.1766 79.4 81.5766 80.8 85.5766 80.8ZM70.9766 17.6L87.9766 2.79999C89.9766 1.2 92.0432 0.266662 94.1766 -4.76837e-06C96.3099 -4.76837e-06 98.1099 0.799995 99.5766 2.39999C101.177 3.86666 101.977 5.73333 101.977 7.99999C101.977 10.9333 100.843 13 98.5766 14.2L77.5766 26C77.1766 26.1333 76.7099 26.3333 76.1766 26.6C75.7766 26.8667 75.2432 27 74.5766 27C70.8432 27 68.9766 25.3333 68.9766 22C68.9766 20.2667 69.6432 18.8 70.9766 17.6ZM149.87 97C140.804 97 133.337 95.1333 127.47 91.4C126.27 90.6 125.404 89.6667 124.87 88.6C124.337 87.4 124.07 86.2667 124.07 85.2C124.07 82.9333 124.804 80.8667 126.27 79C127.87 77.1333 129.804 76.2 132.07 76.2C133.137 76.2 134.204 76.4667 135.27 77C137.67 78.0667 140.404 79 143.47 79.8C146.537 80.4667 149.337 80.8 151.87 80.8C156.804 80.8 159.27 79.6667 159.27 77.4C159.27 76.0667 158.67 74.9333 157.47 74C156.27 72.9333 153.47 72.2 149.07 71.8C147.337 71.6667 145.07 71.4 142.27 71C139.604 70.6 136.937 69.8667 134.27 68.8C131.604 67.6 129.337 65.8667 127.47 63.6C125.737 61.3333 124.87 58.2667 124.87 54.4C124.87 48.4 127.137 43.6667 131.67 40.2C136.204 36.7333 142.27 35 149.87 35C154.27 35 158.404 35.4667 162.27 36.4C166.27 37.3333 169.27 38.7333 171.27 40.6C173.137 42.3333 174.07 44.3333 174.07 46.6C174.07 48.6 173.337 50.4 171.87 52C170.404 53.6 168.537 54.4 166.27 54.4C165.07 54.4 163.937 54.1333 162.87 53.6C161.27 52.5333 159.204 51.7333 156.67 51.2C154.27 50.6667 151.804 50.4 149.27 50.4C144.204 50.4 141.67 51.4667 141.67 53.6C141.67 54.5333 142.137 55.4 143.07 56.2C144.137 56.8667 146.47 57.4667 150.07 58C152.337 58.2667 154.937 58.6667 157.87 59.2C160.804 59.6 163.604 60.4 166.27 61.6C169.07 62.6667 171.404 64.4667 173.27 67C175.137 69.5333 176.07 73 176.07 77.4C176.07 83.4 173.67 88.2 168.87 91.8C164.07 95.2667 157.737 97 149.87 97ZM196.278 97C193.745 97 191.611 96.2667 189.878 94.8C188.145 93.3333 187.278 91.4667 187.278 89.2V42.8C187.278 40.6667 188.078 38.8667 189.678 37.4C191.411 35.8 193.611 35 196.278 35C198.945 35 201.011 35.8 202.478 37.4C204.078 38.8667 204.878 40.7333 204.878 43V89C204.878 91.2667 204.011 93.2 202.278 94.8C200.678 96.2667 198.678 97 196.278 97ZM208.078 17.6C209.411 18.8 210.078 20.2667 210.078 22C210.078 25.3333 208.211 27 204.478 27C203.811 27 203.211 26.8667 202.678 26.6C202.278 26.3333 201.878 26.1333 201.478 26L180.478 14.2C178.211 13 177.078 10.9333 177.078 7.99999C177.078 5.73333 177.811 3.86666 179.278 2.39999C180.878 0.799995 182.745 -4.76837e-06 184.878 -4.76837e-06C187.011 0.266662 189.078 1.2 191.078 2.79999L208.078 17.6ZM271.263 97C268.729 97 266.596 96.2667 264.863 94.8C263.263 93.3333 262.463 91.4667 262.463 89.2V64.8C262.463 59.8667 261.329 56.3333 259.063 54.2C256.929 52.0667 254.263 51 251.063 51C247.729 51 244.929 52.0667 242.663 54.2C240.529 56.3333 239.196 58.8 238.663 61.6V88.4C238.663 90.6667 237.796 92.6 236.063 94.2C234.463 95.6667 232.463 96.4 230.063 96.4C227.529 96.4 225.396 95.6667 223.663 94.2C221.929 92.7333 221.063 90.8667 221.063 88.6V43.8C221.063 41.6667 221.863 39.8667 223.463 38.4C225.196 36.8 227.396 36 230.063 36C232.196 36 233.996 36.6 235.463 37.8C236.929 38.8667 237.929 40.2667 238.463 42C242.063 37.3333 247.529 35 254.863 35C262.329 35 268.396 37.2 273.063 41.6C277.729 46 280.063 53 280.063 62.6V89.6C280.063 91.7333 279.196 93.5333 277.463 95C275.863 96.3333 273.796 97 271.263 97Z" fill="#C026D3"/>
</svg>
