<svg width="24" height="24" viewBox="0 0 24 24" fill="none" xmlns="http://www.w3.org/2000/svg">
<g clip-path="url(#clip0_26_12)">
<path d="M16.24 22C15.9748 22 15.7204 21.8946 15.5329 21.7071C15.3454 21.5196 15.24 21.2652 15.24 21V18.4C15.2711 18.1009 15.2391 17.7987 15.1461 17.5127C15.053 17.2268 14.9011 16.9635 14.7 16.74C14.5755 16.605 14.4906 16.4383 14.4546 16.2582C14.4186 16.0781 14.4329 15.8915 14.4959 15.719C14.5589 15.5465 14.6682 15.3947 14.8118 15.2802C14.9554 15.1657 15.1278 15.093 15.31 15.07C17.75 14.78 20 14 20 9.76999C20.0008 8.98007 19.7676 8.2076 19.33 7.54999C18.9262 6.94462 18.7787 6.20386 18.92 5.48999C19.0101 5.02432 19.0101 4.54567 18.92 4.07999C18.1712 4.33317 17.4662 4.70087 16.83 5.16999C16.7097 5.25541 16.572 5.31315 16.4268 5.33909C16.2816 5.36502 16.1324 5.3585 15.99 5.31999C14.1853 4.81005 12.2747 4.81005 10.47 5.31999C10.3276 5.3585 10.1784 5.36502 10.0332 5.33909C9.88798 5.31315 9.75029 5.25541 9.63 5.16999C8.98994 4.69543 8.27743 4.32736 7.52 4.07999C7.42491 4.54518 7.42491 5.0248 7.52 5.48999C7.65109 6.21285 7.49697 6.95837 7.09 7.56999C6.65427 8.23222 6.4214 9.00727 6.42 9.79999C6.42 13.69 8.3 14.73 11.12 15.09C11.3045 15.1129 11.479 15.1868 11.6239 15.3034C11.7687 15.42 11.8782 15.5746 11.94 15.75C11.9981 15.9202 12.0093 16.1029 11.9724 16.2788C11.9354 16.4548 11.8517 16.6176 11.73 16.75C11.5355 16.9579 11.3862 17.2039 11.2915 17.4724C11.1969 17.7409 11.1589 18.0261 11.18 18.31V21C11.18 21.2652 11.0746 21.5196 10.8871 21.7071C10.6996 21.8946 10.4452 22 10.18 22C9.91479 22 9.66043 21.8946 9.4729 21.7071C9.28536 21.5196 9.18001 21.2652 9.18001 21V20.43C8.19737 20.543 7.20203 20.4113 6.28259 20.0467C5.36314 19.682 4.5481 19.0958 3.91001 18.34C3.58201 17.9764 3.18849 17.6779 2.75001 17.46C2.62262 17.4272 2.50295 17.3696 2.39783 17.2905C2.29271 17.2114 2.20419 17.1124 2.13733 16.9991C2.07048 16.8858 2.02659 16.7605 2.00817 16.6302C1.98976 16.5 1.99717 16.3674 2.03 16.24C2.06284 16.1126 2.12043 15.9929 2.19951 15.8878C2.27859 15.7827 2.3776 15.6942 2.49089 15.6273C2.60418 15.5605 2.72952 15.5166 2.85977 15.4982C2.99002 15.4797 3.12262 15.4872 3.25001 15.52C4.01925 15.8002 4.7066 16.2676 5.25001 16.88C6.25001 17.88 7.25 18.76 9.15 18.4C9.1166 17.8631 9.19491 17.3251 9.38 16.82C7.32 16.3 4.38001 14.82 4.38001 9.81999C4.37737 8.63562 4.72531 7.47697 5.38001 6.48999C5.50161 6.3078 5.54818 6.08569 5.51001 5.86999C5.30793 4.79057 5.42254 3.67573 5.84001 2.65999C5.89673 2.52456 5.98258 2.40328 6.09146 2.30476C6.20035 2.20625 6.32959 2.13292 6.47 2.08999C6.81 1.98999 8.03 1.78999 10.34 3.28999C12.21 2.84 14.16 2.84 16.03 3.28999C18.34 1.78999 19.56 1.97999 19.89 2.08999C20.0304 2.13292 20.1597 2.20625 20.2685 2.30476C20.3774 2.40328 20.4633 2.52456 20.52 2.65999C20.9383 3.67903 21.0529 4.7973 20.85 5.87999C20.8295 5.97755 20.8287 6.0782 20.8476 6.17607C20.8665 6.27394 20.9047 6.36706 20.96 6.44999C21.6166 7.4398 21.9646 8.60222 21.96 9.78999C21.96 14.86 19.04 16.33 16.96 16.79C17.1432 17.3266 17.218 17.8942 17.18 18.46V21C17.1805 21.2551 17.0834 21.5008 16.9086 21.6867C16.7339 21.8726 16.4947 21.9847 16.24 22Z" fill="#64748B"/>
</g>
<defs>
<clipPath id="clip0_26_12">
<rect width="24" height="24" fill="white"/>
</clipPath>
</defs>
</svg>
